<svg version="1.2" xmlns="http://www.w3.org/2000/svg" viewBox="0 0 1000 1000" width="1000" height="1000">
	<title>221604-P1NK7X-520-ai</title>
	<defs>
		<linearGradient id="g1" x2="1" gradientUnits="userSpaceOnUse" gradientTransform="matrix(0,476.56,-455.428,0,754.217,483.795)">
			<stop offset="0" stop-color="#ffffff" stop-opacity="0"/>
			<stop offset="1" stop-color="#dce8ea" stop-opacity="1"/>
		</linearGradient>
		<linearGradient id="g2" x2="1" gradientUnits="userSpaceOnUse" gradientTransform="matrix(3.192,312.898,-229.028,2.336,538.486,312.523)">
			<stop offset="0" stop-color="#ffffff" stop-opacity="0"/>
			<stop offset=".479" stop-color="#ffffff" stop-opacity="1"/>
			<stop offset="1" stop-color="#ffffff" stop-opacity="0"/>
		</linearGradient>
		<linearGradient id="g3" x2="1" gradientUnits="userSpaceOnUse" gradientTransform="matrix(0,59.439,-64.155,0,417.106,713.135)">
			<stop offset="0" stop-color="#ffffff" stop-opacity="0"/>
			<stop offset="1" stop-color="#546e7a" stop-opacity="1"/>
		</linearGradient>
		<linearGradient id="g4" x2="1" gradientUnits="userSpaceOnUse" gradientTransform="matrix(238.733,-397.888,222.155,133.293,173.587,631.828)">
			<stop offset="0" stop-color="#ffffff" stop-opacity="0"/>
			<stop offset="1" stop-color="#ffffff" stop-opacity="1"/>
		</linearGradient>
		<linearGradient id="g5" x2="1" gradientUnits="userSpaceOnUse" gradientTransform="matrix(241.94,-164.725,124.221,182.45,476.185,790.578)">
			<stop offset="0" stop-color="#ffffff" stop-opacity="0"/>
			<stop offset="1" stop-color="#845f53" stop-opacity="1"/>
		</linearGradient>
		<clipPath clipPathUnits="userSpaceOnUse" id="cp1">
			<path d="m162.29 768.09h675.42v33.25l-337.71 82.7-337.71-82.7z"/>
		</clipPath>
		<linearGradient id="g6" x2="1" gradientUnits="userSpaceOnUse" gradientTransform="matrix(0,-123.162,2501.689,0,499.181,822.765)">
			<stop offset="0" stop-color="#ffffff" stop-opacity="0"/>
			<stop offset="1" stop-color="#ffffff" stop-opacity="1"/>
		</linearGradient>
	</defs>
	<style>
		tspan { white-space:pre } 
		.s0 { fill: #ffffff } 
		.s1 { mix-blend-mode: multiply;fill: url(#g1) } 
		.s2 { fill: #dce8ea } 
		.t3 { font-size: 52px;line-height: 52px;fill: #deb887;font-weight: 500;font-style: italic;font-family: "Rubik-MediumItalic", "Rubik" } 
		.s4 { fill: none;stroke: #546e7a;stroke-linecap: round;stroke-miterlimit:10;stroke-width: 8 } 
		.s5 { mix-blend-mode: overlay;fill: url(#g2) } 
		.s6 { fill: #546e7a } 
		.s7 { mix-blend-mode: multiply;fill: url(#g3) } 
		.s8 { mix-blend-mode: overlay;fill: url(#g4) } 
		.s9 { fill: #618693 } 
		.s10 { fill: #5d4037 } 
		.s11 { fill: #845f53 } 
		.s12 { mix-blend-mode: multiply;fill: url(#g5) } 
		.s13 { fill: #deb887 } 
		.s14 { fill: #b5874c } 
		.s15 { mix-blend-mode: overlay;fill: url(#g6) } 
		.s16 { fill: none;stroke: #fdd835;stroke-linecap: round;stroke-miterlimit:10;stroke-width: 6 } 
	</style>
	<g id="Objects">
		<g id="&lt;Group&gt;">
			<g id="&lt;Group&gt;">
				<g id="&lt;Group&gt;">
					<g id="&lt;Group&gt;">
						<path id="&lt;Path&gt;" class="s0" d="m448.5 398.7l-64.2 64.2v305.4h353.2v-369.6z"/>
						<path id="&lt;Path&gt;" class="s1" d="m448.5 398.7l-64.2 64.2v305.4h353.2v-369.6z"/>
						<path id="&lt;Path&gt;" class="s2" d="m448.5 462.9v-64.2l-64.2 64.2z"/>
					</g>
					<text id="404" style="transform: matrix(2,0,0,2,559.578,562.154)" >
						<tspan x="-52.7" y="0" class="t3" dx="0 1 1 1" >404
</tspan>
					</text>
					<g id="&lt;Group&gt;">
						<g id="&lt;Group&gt;">
							<path id="&lt;Path&gt;" class="s4" d="m476.3 601h169.1"/>
						</g>
						<g id="&lt;Group&gt;">
							<path id="&lt;Path&gt;" class="s4" d="m476.3 625.6h169.1"/>
						</g>
						<g id="&lt;Group&gt;">
							<path id="&lt;Path&gt;" class="s4" d="m476.3 650.1h169.1"/>
						</g>
					</g>
					<g id="&lt;Group&gt;">
						<g id="&lt;Group&gt;">
							<path id="&lt;Path&gt;" class="s5" d="m323.2 622.3l-0.1-11.3c-0.2-14.4 11.4-26.3 25.9-26.4l7.2-0.1c26.2-0.3 47.2-21.7 46.9-47.9-0.2-26.2-21.7-47.3-47.9-47l-9.6 0.1c-17.1 0.2-31.1-13.5-31.3-30.6-0.2-17.1 13.5-31.1 30.6-31.3l22.3-0.2c33.5-0.4 60.3-27.8 60-61.2l-0.3-21.6-0.7-76.3-258.2 2.6 0.2 21.6c0.3 33.4 27.7 60.3 61.2 59.9l22.3-0.2c17.1-0.2 31.1 13.5 31.2 30.6 0.2 17.1-13.5 31.2-30.6 31.3l-9.7 0.1c-26.2 0.3-47.2 21.7-46.9 47.9 0.3 26.2 21.7 47.3 47.9 47l7.2-0.1c14.5-0.1 26.3 11.5 26.5 26l0.1 11.2 0.8 76.4z"/>
							<path id="&lt;Path&gt;" class="s6" d="m423.4 567.2h-185.9c-4.8 0-8.5 4.2-7.9 9l18.4 146.7c2.2 17.9 17.4 31.3 35.4 31.3h94.1c18 0 33.2-13.4 35.4-31.3l18.4-146.7c0.6-4.8-3.1-9-7.9-9z"/>
							<path id="&lt;Path&gt;" class="s7" d="m423.4 567.2h-185.9c-4.8 0-8.5 4.2-7.9 9l18.4 146.7c2.2 17.9 17.4 31.3 35.4 31.3h94.1c18 0 33.2-13.4 35.4-31.3l18.4-146.7c0.6-4.8-3.1-9-7.9-9z"/>
							<path id="&lt;Path&gt;" class="s8" d="m423.4 567.2h-51.1c4.8 0 8.5 4.2 7.9 9l-18.4 146.7c-2.2 17.9-17.4 31.3-35.4 31.3h51.1c18 0 33.2-13.4 35.4-31.3l18.4-146.7c0.6-4.8-3.1-9-7.9-9z"/>
							<path id="&lt;Compound Path&gt;" fill-rule="evenodd" class="s6" d="m237.1 702.9c-28.7 0-52.1-24-52.1-53.3 0-29.4 23.4-53.3 52.1-53.3 28.7 0 52.1 23.9 52.1 53.3 0 29.3-23.4 53.3-52.1 53.3zm0-83.2c-15.8 0-28.6 13.4-28.6 29.9 0 16.4 12.8 29.8 28.6 29.8 15.8 0 28.7-13.4 28.7-29.8 0-16.5-12.9-29.9-28.7-29.9z"/>
						</g>
						<path id="&lt;Path&gt;" class="s9" d="m381.8 768.3h-110.8c-19.4 0-38.5-4.9-55.5-14.1-5.5-3-3.4-11.3 2.9-11.3h216c6.2 0 8.4 8.3 2.9 11.3-17.1 9.2-36.1 14.1-55.5 14.1z"/>
					</g>
					<g id="&lt;Group&gt;">
						<g id="&lt;Group&gt;">
							<path id="&lt;Path&gt;" class="s10" d="m632.8 726.1c0 4.3-4.5 7.8-10.1 7.8-5.6 0-10.1-3.5-10.1-7.8 0-4.4 4.5-7.9 10.1-7.9 5.6 0 10.1 3.5 10.1 7.9z"/>
							<path id="&lt;Path&gt;" class="s10" d="m529.9 726.1c0 4.3-4.6 7.8-10.2 7.8-5.6 0-10.1-3.5-10.1-7.8 0-4.4 4.5-7.9 10.1-7.9 5.6 0 10.2 3.5 10.2 7.9z"/>
							<path id="&lt;Path&gt;" class="s10" d="m482.7 743.7c0 4.3-4.5 7.9-10.1 7.9-5.6 0-10.1-3.6-10.1-7.9 0-4.4 4.5-7.9 10.1-7.9 5.6 0 10.1 3.5 10.1 7.9z"/>
							<path id="&lt;Path&gt;" class="s10" d="m686.7 743.7c0 4.3-4.5 7.9-10.1 7.9-5.6 0-10.2-3.6-10.2-7.9 0-4.4 4.6-7.9 10.2-7.9 5.6 0 10.1 3.5 10.1 7.9z"/>
							<path id="&lt;Path&gt;" class="s11" d="m654.3 725.7h-157.3c-16 0-29 13-29 29 0 7.5 6.1 13.6 13.6 13.6h188c7.6 0 13.6-6.1 13.6-13.6 0-16-12.9-29-28.9-29z"/>
							<path id="&lt;Path&gt;" class="s10" d="m582.1 748.9c0 4.3-4.5 7.9-10.1 7.9-5.6 0-10.2-3.6-10.2-7.9 0-4.4 4.6-7.9 10.2-7.9 5.6 0 10.1 3.5 10.1 7.9z"/>
							<path id="&lt;Path&gt;" class="s10" d="m602.7 743.1c0 2.1-2.3 3.9-5.1 3.9-2.8 0-5.1-1.8-5.1-3.9 0-2.2 2.3-4 5.1-4 2.8 0 5.1 1.8 5.1 4z"/>
							<path id="&lt;Path&gt;" class="s10" d="m657.8 735.8c0 2.2-2.3 4-5.1 4-2.8 0-5.1-1.8-5.1-4 0-2.2 2.3-3.9 5.1-3.9 2.8 0 5.1 1.7 5.1 3.9z"/>
							<path id="&lt;Path&gt;" class="s10" d="m505.1 750.9c0 2.2-2.3 4-5.1 4-2.8 0-5.1-1.8-5.1-4 0-2.1 2.3-3.9 5.1-3.9 2.8 0 5.1 1.8 5.1 3.9z"/>
							<path id="&lt;Path&gt;" class="s10" d="m543.1 735.8c0 2.2-2.2 4-5 4-2.8 0-5.1-1.8-5.1-4 0-2.2 2.3-3.9 5.1-3.9 2.8 0 5 1.7 5 3.9z"/>
							<path id="&lt;Path&gt;" class="s10" d="m643.2 751.6c0 2.1-2.3 3.9-5.1 3.9-2.8 0-5-1.8-5-3.9 0-2.2 2.2-4 5-4 2.8 0 5.1 1.8 5.1 4z"/>
							<path id="&lt;Path&gt;" class="s12" d="m654.3 725.7h-157.3c-16 0-29 13-29 29 0 7.5 6.1 13.6 13.6 13.6h188c7.6 0 13.6-6.1 13.6-13.6 0-16-12.9-29-28.9-29z"/>
						</g>
						<g id="&lt;Group&gt;">
							<path id="&lt;Path&gt;" class="s10" d="m721.9 719.1c-0.8 4.2-6 6.8-11.5 5.6-5.5-1.1-9.2-5.5-8.3-9.7 0.8-4.3 6-6.8 11.5-5.7 5.5 1.1 9.2 5.5 8.3 9.8z"/>
							<path id="&lt;Path&gt;" class="s10" d="m621.1 698.4c-0.9 4.2-6.1 6.8-11.6 5.6-5.4-1.1-9.2-5.5-8.3-9.7 0.9-4.3 6-6.8 11.5-5.7 5.5 1.1 9.2 5.5 8.4 9.8z"/>
							<path id="&lt;Path&gt;" class="s10" d="m571.3 706.2c-0.8 4.2-6 6.8-11.5 5.6-5.5-1.1-9.2-5.5-8.3-9.7 0.9-4.3 6-6.8 11.5-5.7 5.5 1.1 9.2 5.5 8.3 9.8z"/>
							<path id="&lt;Path&gt;" class="s10" d="m771.1 747.2c-0.8 4.2-6 6.8-11.5 5.6-5.5-1.1-9.2-5.4-8.3-9.7 0.9-4.3 6-6.8 11.5-5.7 5.5 1.1 9.2 5.5 8.3 9.8z"/>
							<path id="&lt;Path&gt;" class="s11" d="m743 723.1l-154.1-31.7c-15.7-3.2-31 6.9-34.2 22.6-1.5 7.3 3.2 14.5 10.6 16l184.2 37.8c7.3 1.5 14.5-3.2 16-10.6 3.2-15.6-6.8-30.9-22.5-34.1z"/>
							<path id="&lt;Path&gt;" class="s10" d="m667.7 731.2c-0.9 4.3-6.1 6.8-11.6 5.7-5.4-1.1-9.2-5.5-8.3-9.7 0.9-4.3 6-6.8 11.5-5.7 5.5 1.1 9.2 5.5 8.4 9.7z"/>
							<path id="&lt;Path&gt;" class="s10" d="m688.9 729.7c-0.4 2.1-3 3.4-5.7 2.8-2.8-0.6-4.6-2.8-4.2-4.9 0.4-2.1 3-3.4 5.8-2.8 2.7 0.5 4.6 2.7 4.1 4.9z"/>
							<path id="&lt;Path&gt;" class="s10" d="m744.4 733.6c-0.4 2.2-3 3.4-5.8 2.9-2.7-0.6-4.6-2.8-4.1-4.9 0.4-2.1 3-3.4 5.7-2.8 2.8 0.5 4.6 2.7 4.2 4.8z"/>
							<path id="&lt;Path&gt;" class="s10" d="m591.8 717.8c-0.5 2.1-3.1 3.4-5.8 2.8-2.7-0.6-4.6-2.8-4.2-4.9 0.5-2.1 3-3.4 5.8-2.8 2.7 0.5 4.6 2.7 4.2 4.9z"/>
							<path id="&lt;Path&gt;" class="s10" d="m632.1 710.6c-0.4 2.1-3 3.4-5.8 2.8-2.7-0.5-4.6-2.7-4.1-4.8 0.4-2.2 3-3.4 5.7-2.9 2.8 0.6 4.6 2.8 4.2 4.9z"/>
							<path id="&lt;Path&gt;" class="s10" d="m726.9 746.1c-0.4 2.2-3 3.4-5.7 2.9-2.8-0.6-4.6-2.8-4.2-4.9 0.4-2.1 3-3.4 5.8-2.8 2.7 0.5 4.6 2.7 4.1 4.8z"/>
						</g>
					</g>
					<path id="&lt;Path&gt;" class="s13" d="m162.3 768.1h675.4v33.2l-337.7 82.7-337.7-82.7z"/>
					<g id="&lt;Clip Group&gt;" clip-path="url(#cp1)">
						<g id="&lt;Group&gt;">
							<path id="&lt;Path&gt;" class="s14" d="m210.8 908.8h-17.6v-140.5h17.6z"/>
							<path id="&lt;Path&gt;" class="s14" d="m256.7 908.8h-17.6v-140.5h17.6z"/>
							<path id="&lt;Path&gt;" class="s14" d="m302.5 908.8h-17.6v-140.5h17.6z"/>
							<path id="&lt;Path&gt;" class="s14" d="m348.4 908.8h-17.7v-140.5h17.7z"/>
							<path id="&lt;Path&gt;" class="s14" d="m394.2 908.8h-17.6v-140.5h17.6z"/>
							<path id="&lt;Path&gt;" class="s14" d="m440.1 908.8h-17.7v-140.5h17.7z"/>
							<path id="&lt;Path&gt;" class="s14" d="m485.9 908.8h-17.6v-140.5h17.6z"/>
							<path id="&lt;Path&gt;" class="s14" d="m531.7 908.8h-17.6v-140.5h17.6z"/>
							<path id="&lt;Path&gt;" class="s14" d="m577.6 908.8h-17.7v-140.5h17.7z"/>
							<path id="&lt;Path&gt;" class="s14" d="m623.4 908.8h-17.6v-140.5h17.6z"/>
							<path id="&lt;Path&gt;" class="s14" d="m669.3 908.8h-17.7v-140.5h17.7z"/>
							<path id="&lt;Path&gt;" class="s14" d="m715.1 908.8h-17.6v-140.5h17.6z"/>
							<path id="&lt;Path&gt;" class="s14" d="m760.9 908.8h-17.6v-140.5h17.6z"/>
							<path id="&lt;Path&gt;" class="s14" d="m806.8 908.8h-17.6v-140.5h17.6z"/>
						</g>
					</g>
					<path id="&lt;Path&gt;" class="s15" d="m837.7 768.1h-675.4v33.2h675.4z"/>
				</g>
				<g id="&lt;Group&gt;">
					<g id="&lt;Group&gt;">
						<g id="&lt;Group&gt;">
							<path id="&lt;Path&gt;" class="s16" d="m787.8 384.7v9.7"/>
						</g>
						<g id="&lt;Group&gt;">
							<path id="&lt;Path&gt;" class="s16" d="m787.8 405.9v9.7"/>
						</g>
					</g>
					<g id="&lt;Group&gt;">
						<g id="&lt;Group&gt;">
							<path id="&lt;Path&gt;" class="s16" d="m803.2 400.2h-9.7"/>
						</g>
						<g id="&lt;Group&gt;">
							<path id="&lt;Path&gt;" class="s16" d="m782 400.2h-9.7"/>
						</g>
					</g>
				</g>
				<g id="&lt;Group&gt;">
					<g id="&lt;Group&gt;">
						<g id="&lt;Group&gt;">
							<path id="&lt;Path&gt;" class="s16" d="m701.9 324.7v9.7"/>
						</g>
						<g id="&lt;Group&gt;">
							<path id="&lt;Path&gt;" class="s16" d="m701.9 345.9v9.7"/>
						</g>
					</g>
					<g id="&lt;Group&gt;">
						<g id="&lt;Group&gt;">
							<path id="&lt;Path&gt;" class="s16" d="m717.4 340.2h-9.7"/>
						</g>
						<g id="&lt;Group&gt;">
							<path id="&lt;Path&gt;" class="s16" d="m696.2 340.2h-9.7"/>
						</g>
					</g>
				</g>
				<g id="&lt;Group&gt;">
					<g id="&lt;Group&gt;">
						<g id="&lt;Group&gt;">
							<path id="&lt;Path&gt;" class="s16" d="m185 531.3v9.7"/>
						</g>
						<g id="&lt;Group&gt;">
							<path id="&lt;Path&gt;" class="s16" d="m185 552.5v9.7"/>
						</g>
					</g>
					<g id="&lt;Group&gt;">
						<g id="&lt;Group&gt;">
							<path id="&lt;Path&gt;" class="s16" d="m200.5 546.7h-9.7"/>
						</g>
						<g id="&lt;Group&gt;">
							<path id="&lt;Path&gt;" class="s16" d="m179.3 546.7h-9.7"/>
						</g>
					</g>
				</g>
				<g id="&lt;Group&gt;">
					<g id="&lt;Group&gt;">
						<g id="&lt;Group&gt;">
							<path id="&lt;Path&gt;" class="s16" d="m120 640v9.7"/>
						</g>
						<g id="&lt;Group&gt;">
							<path id="&lt;Path&gt;" class="s16" d="m120 661.2v9.7"/>
						</g>
					</g>
					<g id="&lt;Group&gt;">
						<g id="&lt;Group&gt;">
							<path id="&lt;Path&gt;" class="s16" d="m135.4 655.5h-9.6"/>
						</g>
						<g id="&lt;Group&gt;">
							<path id="&lt;Path&gt;" class="s16" d="m114.2 655.5h-9.6"/>
						</g>
					</g>
				</g>
				<g id="&lt;Group&gt;">
					<g id="&lt;Group&gt;">
						<g id="&lt;Group&gt;">
							<path id="&lt;Path&gt;" class="s16" d="m824.2 680.7v9.7"/>
						</g>
						<g id="&lt;Group&gt;">
							<path id="&lt;Path&gt;" class="s16" d="m824.2 701.9v9.7"/>
						</g>
					</g>
					<g id="&lt;Group&gt;">
						<g id="&lt;Group&gt;">
							<path id="&lt;Path&gt;" class="s16" d="m839.7 696.1h-9.7"/>
						</g>
						<g id="&lt;Group&gt;">
							<path id="&lt;Path&gt;" class="s16" d="m818.5 696.1h-9.7"/>
						</g>
					</g>
				</g>
				<g id="&lt;Group&gt;">
					<g id="&lt;Group&gt;">
						<g id="&lt;Group&gt;">
							<path id="&lt;Path&gt;" class="s16" d="m870.6 610.9v9.7"/>
						</g>
						<g id="&lt;Group&gt;">
							<path id="&lt;Path&gt;" class="s16" d="m870.6 632.1v9.7"/>
						</g>
					</g>
					<g id="&lt;Group&gt;">
						<g id="&lt;Group&gt;">
							<path id="&lt;Path&gt;" class="s16" d="m886 626.3h-9.7"/>
						</g>
						<g id="&lt;Group&gt;">
							<path id="&lt;Path&gt;" class="s16" d="m864.8 626.3h-9.7"/>
						</g>
					</g>
				</g>
			</g>
		</g>
	</g>
</svg>