<?xml version="1.0" standalone="no"?>
<!DOCTYPE svg PUBLIC "-//W3C//DTD SVG 20010904//EN"
 "http://www.w3.org/TR/2001/REC-SVG-20010904/DTD/svg10.dtd">
<svg version="1.0" xmlns="http://www.w3.org/2000/svg"
 width="700.000000pt" height="700.000000pt" viewBox="0 0 700.000000 700.000000"
 preserveAspectRatio="xMidYMid meet">
<metadata>
Created by potrace 1.14, written by Peter Selinger 2001-2017
</metadata>
<g transform="translate(0.000000,700.000000) scale(0.100000,-0.100000)"
fill="#000000" stroke="none">
<path d="M3298 6506 c-1 -2 -40 -7 -85 -10 -46 -4 -91 -9 -100 -10 -10 -2 -38
-7 -63 -11 -25 -3 -58 -9 -75 -11 -153 -25 -456 -111 -590 -169 -16 -7 -64
-27 -105 -45 -72 -31 -193 -93 -290 -148 -62 -35 -275 -177 -290 -192 -3 -3
-25 -21 -50 -40 -159 -120 -358 -318 -513 -509 -141 -174 -308 -456 -405 -683
-67 -157 -145 -396 -166 -508 -2 -14 -9 -46 -15 -73 -6 -26 -14 -64 -17 -85
-3 -20 -7 -48 -10 -62 -2 -14 -6 -45 -9 -70 -3 -25 -8 -65 -11 -90 -10 -79
-12 -442 -4 -530 33 -335 91 -584 202 -865 173 -436 476 -864 827 -1165 35
-30 69 -60 75 -65 6 -6 40 -32 76 -58 36 -27 72 -53 80 -60 34 -27 210 -138
285 -180 282 -157 668 -293 940 -332 23 -3 52 -7 65 -10 14 -3 52 -8 85 -11
33 -4 82 -10 109 -14 53 -8 485 -5 551 4 22 3 60 8 85 11 95 12 198 30 270 46
25 6 55 13 68 15 53 10 266 79 367 119 230 89 481 226 670 364 49 36 92 68 95
71 3 3 28 23 55 45 205 163 413 390 577 630 300 438 465 900 517 1450 9 91 6
471 -4 555 -59 500 -217 939 -479 1340 -115 175 -228 313 -386 470 -161 161
-179 177 -320 283 -346 260 -807 471 -1185 542 -104 19 -201 35 -247 41 -29 3
-64 8 -78 10 -29 5 -496 14 -502 10z m392 -190 c58 -3 114 -7 125 -10 11 -2
45 -7 75 -10 102 -13 302 -57 419 -92 992 -299 1749 -1126 1954 -2134 45 -218
58 -350 59 -560 0 -108 -9 -289 -17 -330 -2 -11 -6 -43 -9 -72 -6 -56 -7 -59
-32 -183 -105 -526 -376 -1027 -769 -1420 -403 -403 -881 -658 -1450 -774
-115 -23 -189 -34 -330 -47 -118 -11 -452 -5 -530 10 -11 2 -47 7 -80 10 -33
4 -67 9 -75 11 -8 2 -31 7 -50 10 -335 56 -719 212 -1035 420 -639 422 -1079
1085 -1220 1835 -3 14 -7 36 -10 50 -3 14 -7 43 -10 65 -2 22 -7 63 -10 90 -4
28 -8 73 -11 100 -6 65 -6 394 -1 420 3 11 8 61 12 110 4 50 8 92 10 95 2 3 6
28 9 55 11 84 72 325 112 441 165 484 465 926 849 1248 39 32 79 66 90 75 35
29 207 147 280 191 86 52 296 157 390 195 39 15 79 31 90 36 11 4 65 22 120
39 55 17 114 35 130 40 50 16 276 60 335 66 30 2 62 7 70 9 8 2 60 7 115 10
55 4 101 7 102 8 3 3 188 -1 293 -7z"/>
<path d="M3427 6124 c-1 -1 -51 -4 -112 -8 -136 -8 -156 -11 -315 -41 -826
-155 -1569 -754 -1903 -1535 -76 -178 -151 -427 -172 -565 -3 -22 -10 -67 -15
-100 -34 -208 -34 -549 1 -765 6 -36 13 -78 16 -95 8 -55 62 -263 89 -342 43
-129 146 -365 194 -443 5 -8 35 -57 66 -108 58 -97 173 -255 240 -332 89 -102
300 -303 369 -352 5 -4 33 -25 60 -46 28 -21 82 -58 120 -82 39 -24 72 -47 75
-50 6 -6 14 -11 131 -74 191 -103 422 -190 636 -240 141 -33 210 -45 368 -61
68 -8 375 -7 455 0 382 35 731 143 1060 329 222 125 374 241 566 431 430 426
699 985 761 1577 18 169 9 531 -17 678 -5 30 -12 71 -15 90 -13 77 -47 211
-81 315 -135 409 -338 739 -644 1045 -243 244 -464 398 -776 542 -154 71 -398
152 -524 173 -19 3 -51 10 -70 15 -19 5 -62 12 -95 16 -33 3 -63 8 -66 10 -11
6 -395 23 -402 18z m303 -48 c25 -3 72 -8 105 -11 81 -8 280 -49 390 -81 299
-85 603 -240 859 -438 106 -82 144 -115 248 -218 234 -234 403 -482 553 -812
56 -125 138 -393 161 -531 3 -16 9 -56 15 -87 5 -32 12 -77 14 -100 3 -24 7
-59 9 -78 6 -44 8 -387 2 -420 -3 -14 -7 -52 -11 -85 -3 -33 -8 -71 -10 -85
-3 -14 -7 -41 -9 -60 -25 -197 -119 -482 -237 -720 -284 -572 -775 -1022
-1371 -1259 -67 -26 -259 -89 -297 -96 -9 -1 -34 -8 -56 -13 -22 -6 -53 -13
-70 -16 -16 -3 -41 -7 -55 -10 -226 -43 -578 -53 -790 -21 -14 2 -45 6 -70 10
-95 14 -103 16 -200 40 -36 8 -74 18 -84 20 -11 3 -63 19 -115 36 -552 182
-1007 523 -1344 1010 -37 53 -67 99 -67 103 0 3 -15 29 -34 59 -46 72 -136
261 -180 378 -69 186 -120 395 -147 599 -25 188 -13 620 21 760 5 19 11 51 14
70 28 184 146 504 267 723 234 425 599 792 1014 1019 195 107 472 216 615 244
14 3 33 7 42 10 65 19 282 53 387 60 53 3 97 7 98 8 5 5 291 -2 333 -8z"/>
<path d="M3674 5826 c-4 -9 -23 -13 -64 -13 -48 1 -67 -5 -107 -29 -116 -72
-181 -272 -124 -381 56 -105 128 -142 199 -102 18 11 35 19 38 19 2 0 2 -31
-1 -69 -6 -81 -4 -83 71 -87 99 -6 118 32 130 256 3 74 7 141 9 149 7 52 -40
217 -71 248 -25 25 -72 31 -80 9z m-12 -86 c-7 -108 -33 -273 -47 -294 -8 -12
-27 -29 -41 -37 -24 -12 -28 -12 -45 10 -15 19 -24 60 -21 101 13 193 53 275
132 267 23 -2 25 -5 22 -47z"/>
<path d="M2995 5800 c-43 -9 -73 -27 -85 -50 -13 -25 -25 -25 -57 0 -39 31
-127 25 -138 -10 -6 -19 54 -332 86 -450 25 -88 38 -106 85 -115 52 -9 68 0
93 53 20 43 22 57 16 141 -8 108 -34 221 -64 274 -12 21 -21 46 -21 56 0 19
36 72 48 69 4 -1 15 2 24 6 30 13 57 -12 72 -67 30 -102 67 -243 87 -327 42
-170 44 -175 66 -178 16 -2 24 6 37 39 17 41 17 45 -9 138 -76 276 -129 397
-180 416 -16 7 -43 9 -60 5z"/>
<path d="M4115 5667 c-16 -5 -42 -19 -57 -29 -16 -11 -29 -17 -29 -14 -1 3 -2
11 -3 18 0 6 -6 13 -12 15 -21 7 -120 -256 -140 -370 -2 -17 -7 -34 -10 -39
-6 -9 13 -38 25 -38 4 0 13 17 20 38 71 207 94 251 159 307 55 47 82 56 82 30
0 -9 -32 -115 -72 -236 -79 -244 -79 -244 -3 -235 58 7 78 39 133 211 l48 150
46 25 c26 13 50 21 54 17 4 -3 -5 -39 -20 -79 -103 -271 -130 -359 -121 -389
12 -37 45 -79 62 -79 42 0 113 120 153 262 38 132 52 183 58 213 10 51 8 143
-5 156 -18 18 -104 17 -160 -2 l-52 -18 -3 26 c-6 50 -86 82 -153 60z"/>
<path d="M2385 5575 c-33 -17 -75 -63 -75 -82 0 -21 -17 -23 -56 -7 -22 9 -41
15 -44 14 -43 -19 -79 -42 -83 -52 -6 -17 170 -369 223 -449 39 -57 42 -59 85
-59 63 0 75 16 88 119 4 26 -59 190 -98 257 -14 24 -43 64 -65 89 -22 26 -40
48 -40 51 0 19 32 74 48 83 51 27 76 5 149 -129 16 -30 43 -75 58 -100 16 -25
54 -92 85 -150 40 -76 62 -106 77 -108 15 -2 23 4 29 25 15 45 11 60 -31 134
-110 193 -216 339 -266 364 -35 19 -47 19 -84 0z"/>
<path d="M4656 5345 c-57 -30 -88 -63 -122 -133 -38 -75 -32 -152 17 -216 19
-25 45 -49 59 -54 59 -21 136 32 215 147 40 59 48 78 50 123 6 131 -100 196
-219 133z m152 -91 c49 -34 6 -141 -86 -211 -56 -43 -73 -36 -87 37 -7 36 22
89 75 141 55 53 65 57 98 33z"/>
<path d="M1867 5272 c-22 -25 1 -55 40 -50 39 4 42 33 5 52 -27 14 -31 14 -45
-2z"/>
<path d="M5190 5241 c-27 -11 -310 -251 -364 -309 -53 -55 -53 -55 -44 -101 4
-25 12 -49 16 -53 12 -12 95 -16 126 -5 76 26 240 161 297 244 27 39 31 41 70
38 43 -5 78 -35 79 -68 0 -17 -255 -274 -335 -337 -45 -35 -85 -79 -85 -92 0
-11 40 -26 60 -22 8 1 21 3 28 3 8 1 33 20 56 44 23 23 73 71 111 107 120 114
205 226 205 269 0 30 -35 88 -62 102 -11 6 -32 13 -46 15 -38 7 -43 15 -33 51
7 24 5 38 -9 59 -24 41 -52 63 -70 55z"/>
<path d="M1956 5171 l-26 -17 27 -40 c66 -98 176 -224 219 -253 68 -44 123
-42 138 7 6 18 0 29 -27 55 -19 17 -86 82 -148 143 -63 61 -124 113 -136 116
-12 3 -32 -2 -47 -11z"/>
<path d="M1595 5026 c-25 -38 -29 -97 -11 -158 11 -39 30 -69 73 -114 107
-113 277 -245 349 -270 59 -21 182 12 199 54 28 65 0 137 -86 223 -75 75 -122
96 -75 34 14 -19 37 -50 50 -68 28 -36 40 -85 27 -106 -11 -17 -71 -8 -110 17
-54 34 -267 199 -306 237 -66 64 -85 115 -44 115 28 0 100 -21 117 -33 7 -5
15 -7 19 -3 3 3 4 7 2 9 -76 57 -116 80 -148 84 -34 5 -41 2 -56 -21z"/>
<path d="M2956 4671 c-13 -15 -21 -41 -24 -79 l-4 -58 -80 -18 c-205 -46 -385
-164 -445 -295 -25 -53 -25 -54 -19 -256 11 -300 15 -353 32 -393 15 -36 14
-38 -8 -52 -106 -69 -240 -222 -254 -289 -4 -20 -9 -43 -10 -51 -2 -8 -6 -35
-9 -60 -3 -25 -9 -74 -13 -110 -11 -93 -7 -330 7 -371 11 -33 14 -56 26 -172
5 -55 43 -137 63 -137 5 0 19 -10 32 -22 81 -76 300 -168 505 -214 112 -25
333 -30 435 -9 227 45 324 81 453 166 32 22 72 41 89 44 17 3 34 8 38 10 6 3
217 41 345 61 61 9 216 51 270 72 43 17 53 18 94 6 25 -8 55 -18 66 -23 50
-24 158 -65 240 -92 170 -56 183 -59 234 -59 46 0 54 4 87 38 l35 38 57 -12
c78 -16 171 -12 204 10 45 30 65 109 44 174 -9 26 -58 54 -81 46 -13 -5 -15
-2 -10 18 3 13 2 35 -4 50 -9 25 -31 34 -126 52 -11 3 -52 12 -91 21 l-72 16
-5 41 c-3 24 -18 56 -37 79 l-32 40 36 37 c45 45 55 78 53 167 -2 49 3 81 15
107 23 48 27 126 12 240 -7 51 -10 142 -8 201 4 101 3 112 -22 160 -30 61 -58
93 -99 114 -16 9 -46 29 -65 44 -42 34 -193 105 -243 114 -42 8 -65 -3 -127
-61 -47 -44 -47 -44 -96 -35 -50 10 -316 7 -367 -3 -15 -3 -53 -10 -85 -16
-31 -5 -72 -14 -90 -19 l-32 -10 2 158 2 157 -41 86 c-44 92 -95 151 -178 203
-141 90 -350 149 -574 161 -100 6 -107 5 -125 -15z"/>
<path d="M5539 3639 c-106 -63 -102 -231 8 -283 42 -20 115 -21 153 -1 103 53
112 208 18 278 -42 31 -132 34 -179 6z"/>
<path d="M1420 3588 c-110 -41 -137 -196 -48 -274 58 -51 144 -54 204 -9 119
90 64 282 -83 290 -26 2 -59 -1 -73 -7z"/>
<path d="M4145 1528 c18 -60 78 -218 89 -234 12 -16 16 -15 67 10 30 15 43 24
29 21 -47 -12 -53 -10 -62 20 -22 73 -62 171 -76 188 -8 9 -24 17 -34 17 -15
0 -18 -5 -13 -22z"/>
<path d="M2712 1515 c-67 -56 -53 -183 20 -185 21 0 56 36 70 70 20 52 17 92
-7 116 -30 30 -46 30 -83 -1z m85 -48 c8 -58 -42 -122 -74 -96 -18 16 -12 69
12 106 22 33 57 28 62 -10z"/>
<path d="M3925 1443 c9 -60 53 -215 65 -227 5 -5 23 -2 42 7 18 8 42 18 53 21
11 3 3 3 -17 0 -41 -5 -38 -10 -63 101 -21 97 -44 145 -68 145 -17 0 -19 -5
-12 -47z"/>
<path d="M2938 1465 c-6 -6 -1 -183 6 -201 16 -42 57 4 110 124 40 92 26 85
-22 -11 -32 -62 -42 -76 -43 -57 -1 14 -3 41 -4 60 -4 72 -24 108 -47 85z"/>
<path d="M3196 1451 c-6 -8 -18 -137 -20 -206 -1 -30 0 -30 54 -32 37 -2 49 0
35 6 -11 5 -22 7 -25 6 -5 -3 -5 54 0 138 0 5 17 6 38 3 26 -4 33 -3 22 4 -8
5 -27 10 -42 10 -25 0 -28 3 -28 36 0 21 4 33 10 29 6 -3 10 -1 10 4 0 13 -47
15 -54 2z"/>
<path d="M3434 1405 c-11 -27 2 -235 14 -247 18 -18 26 -2 32 58 l5 55 38 -51
c21 -28 42 -48 48 -44 6 4 5 14 -5 27 -53 75 -66 106 -55 125 15 24 5 52 -21
59 -11 3 -20 9 -20 13 0 16 -31 19 -36 5z m69 -39 c3 -8 -1 -22 -8 -33 -13
-17 -14 -16 -15 15 0 33 13 43 23 18z"/>
<path d="M3712 1395 c-39 -50 -13 -154 44 -175 48 -18 80 22 77 98 -3 85 -78
132 -121 77z m103 -86 c-4 -45 -11 -59 -30 -59 -40 0 -61 103 -28 136 16 15
18 15 39 -11 16 -21 21 -38 19 -66z"/>
</g>
</svg>
